# xmcd
# Track frame offsets:
# 150
# 19528
# 37639
#
# Disc length: 797 seconds
# Revision: 0
# Processed by: cddbd v1.5.2PL0 Copyright (c) Steve Scherf et al.
# Submitted via: VisiTrax 2.10.2.252 - For more info visit www.synapsa.com
#
DISCID=10031b03
DTITLE=Brother Blues - Demo 2008
DYEAR=2008
DGENRE=Blues
TTITLE0=Peace on my mind
TTITLE1=Soon as I get paid
TTITLE2=I got the blues
EXTD=
EXTT0=
EXTT1=
EXTT2=
PLAYORDER=
